{
    "asset" : {
        "generator" : "Khronos glTF Blender I/O v1.7.33",
        "version" : "2.0"
    },
    "scene" : 0,
    "scenes" : [
        {
            "name" : "Scene",
            "nodes" : [
                0,
                1,
                2,
                3
            ]
        }
    ],
    "nodes" : [
        {
            "name" : "Light.001",
            "rotation" : [
                -0.28479811549186707,
                0.8824667930603027,
                0.34748634696006775,
                0.1392681747674942
            ],
            "translation" : [
                -5,
                5,
                5
            ]
        },
        {
            "name" : "Camera.001",
            "rotation" : [
                0.483536034822464,
                0.33687159419059753,
                -0.20870360732078552,
                0.7804827094078064
            ],
            "translation" : [
                7.358891487121582,
                4.958309173583984,
                6.925790786743164
            ]
        },
        {
            "name" : "Light.002",
            "rotation" : [
                0.41326749324798584,
                0.830100953578949,
                0.15111000835895538,
                0.34250274300575256
            ],
            "translation" : [
                5,
                5,
                5
            ]
        },
        {
            "mesh" : 0,
            "name" : "thickened",
            "translation" : [
                18.592885971069336,
                0,
                -23.656827926635742
            ]
        }
    ],
    "materials" : [
        {
            "alphaCutoff" : 0.5,
            "alphaMode" : "MASK",
            "doubleSided" : true,
            "name" : "standardSurface1SG.001",
            "pbrMetallicRoughness" : {
                "baseColorFactor" : [
                    0,
                    0,
                    0,
                    1
                ],
                "metallicFactor" : 0
            }
        },
        {
            "alphaCutoff" : 0.5,
            "alphaMode" : "MASK",
            "doubleSided" : true,
            "name" : "initialShadingGroup.006",
            "pbrMetallicRoughness" : {
                "metallicFactor" : 0
            }
        }
    ],
    "meshes" : [
        {
            "name" : "thickened.001",
            "primitives" : [
                {
                    "attributes" : {
                        "POSITION" : 0,
                        "NORMAL" : 1
                    },
                    "indices" : 2,
                    "material" : 0
                },
                {
                    "attributes" : {
                        "POSITION" : 3,
                        "NORMAL" : 4
                    },
                    "indices" : 5,
                    "material" : 1
                }
            ]
        }
    ],
    "accessors" : [
        {
            "bufferView" : 0,
            "componentType" : 5126,
            "count" : 678,
            "max" : [
                -13.990706443786621,
                0.5863659977912903,
                32.208133697509766
            ],
            "min" : [
                -25.468889236450195,
                -0.014446999877691269,
                16.269744873046875
            ],
            "type" : "VEC3"
        },
        {
            "bufferView" : 1,
            "componentType" : 5126,
            "count" : 678,
            "type" : "VEC3"
        },
        {
            "bufferView" : 2,
            "componentType" : 5123,
            "count" : 1140,
            "type" : "SCALAR"
        },
        {
            "bufferView" : 3,
            "componentType" : 5126,
            "count" : 9300,
            "max" : [
                -14.910341262817383,
                2.056365966796875,
                31.44243812561035
            ],
            "min" : [
                -24.278905868530273,
                0.007942999713122845,
                17.545028686523438
            ],
            "type" : "VEC3"
        },
        {
            "bufferView" : 4,
            "componentType" : 5126,
            "count" : 9300,
            "type" : "VEC3"
        },
        {
            "bufferView" : 5,
            "componentType" : 5123,
            "count" : 14976,
            "type" : "SCALAR"
        }
    ],
    "bufferViews" : [
        {
            "buffer" : 0,
            "byteLength" : 8136,
            "byteOffset" : 0
        },
        {
            "buffer" : 0,
            "byteLength" : 8136,
            "byteOffset" : 8136
        },
        {
            "buffer" : 0,
            "byteLength" : 2280,
            "byteOffset" : 16272
        },
        {
            "buffer" : 0,
            "byteLength" : 111600,
            "byteOffset" : 18552
        },
        {
            "buffer" : 0,
            "byteLength" : 111600,
            "byteOffset" : 130152
        },
        {
            "buffer" : 0,
            "byteLength" : 29952,
            "byteOffset" : 241752
        }
    ],
    "buffers" : [
        {
            "byteLength" : 271704,
            "uri" : "data:application/octet-stream;base64,"
        }
    ]
}
